<svg xmlns="http://www.w3.org/2000/svg" viewBox="0 0 512 512" style="enable-background:new 0 0 512 512" xml:space="preserve"><path d="M256 29.7C381 29.7 482.3 131 482.3 256c0 125-101.3 226.3-226.3 226.3C131 482.3 29.7 381 29.7 256 29.7 131 131 29.7 256 29.7z" style="fill-opacity:1.000000e-02;stroke:#cc5496;stroke-width:28"/><path d="M256 357.2c55.8 0 101.2-45.4 101.2-101.2 0-55.8-45.4-101.2-101.2-101.2S154.8 200.2 154.8 256c0 55.8 45.4 101.2 101.2 101.2zm0-23.6c-16 0-31.3-4.8-44.3-13.9 5.3-8.8 21.5-30.9 56-44.1 8.7 23.6 13.2 43.8 15 53.3-8.5 3.2-17.5 4.7-26.7 4.7zm49.3-17.7c-2-9.6-5.9-26.4-12.8-46.2 3.5-.3 7-.5 10.6-.5 12.6 0 23 2.1 28.6 3.5-3.7 16.8-13 32.1-26.4 43.2zm14.2-104.1c7.8 11.1 12.5 24.2 13.7 37.7-7.1-1.2-19.4-2.8-33.3-2.8-5.5 0-10.8.3-15.9.8-.1-.3-.3-.6-.4-1a458 458 0 0 0-3.4-7.6c20.7-9.2 33.3-20.6 39.3-27.1zM256 178.6c17.4 0 34.2 5.9 47.9 16.6-4.7 5.3-15.4 15.3-34.3 23.1-9.4-16.8-19-31.1-24.6-38.9 3.7-.5 7.3-.8 11-.8zm-36.5 9.2c4.5 6.4 14.6 20.9 24.7 38.4-27.2 6.6-51.2 8-62.6 8.3 5.8-20 19.5-36.9 37.9-46.7zm36.3 59.8c.9 1.8 1.7 3.5 2.5 5.3-34.4 11.8-55.8 38.2-64 50.1-9.8-12.9-15.3-28.4-15.8-44.6 12-.1 43.9-1.4 77.3-10.8z" style="fill:#cc5496"/></svg>