<svg xmlns="http://www.w3.org/2000/svg" viewBox="0 0 512 512" style="enable-background:new 0 0 512 512" xml:space="preserve"><path d="M256 388.1c72.9 0 132.1-59.3 132.1-132.1 0-72.9-59.3-132.1-132.1-132.1S123.9 183.1 123.9 256c0 72.9 59.2 132.1 132.1 132.1zm0-30.7c-20.9 0-40.8-6.3-57.8-18.2 6.9-11.5 28-40.3 73.2-57.6 11.4 30.9 17.2 57.2 19.5 69.5-11.2 4.2-22.9 6.3-34.9 6.3zm64.4-23.2c-2.6-12.5-7.7-34.4-16.7-60.3 4.5-.5 9.2-.7 13.9-.7 16.4 0 30.1 2.7 37.3 4.5-4.9 22.1-17.1 42-34.5 56.5zm18.5-135.9c10.2 14.5 16.3 31.6 17.9 49.3-9.3-1.5-25.3-3.6-43.4-3.6-7.2 0-14.2.3-20.8 1-.2-.4-.3-.8-.5-1.2-1.4-3.2-2.9-6.5-4.4-9.9 27-12.2 43.3-27 51.2-35.6zM256 155c22.7 0 44.7 7.6 62.5 21.6-6.1 6.9-20.1 19.9-44.7 30.1-12.3-21.9-24.9-40.5-32.1-50.7 4.7-.7 9.5-1 14.3-1zm-47.7 11.9c5.9 8.4 19 27.3 32.2 50.1-35.6 8.6-66.8 10.4-81.7 10.8 7.7-25.9 25.6-48 49.5-60.9zm47.5 78.2c1.2 2.3 2.3 4.6 3.3 6.9-44.9 15.4-72.8 49.9-83.6 65.5-12.8-16.8-20-37.1-20.7-58.2 15.7-.3 57.4-2 101-14.2z" style="fill:#cc5496"/><path d="M256 29.7C381 29.7 482.3 131 482.3 256c0 125-101.3 226.3-226.3 226.3C131 482.3 29.7 381 29.7 256 29.7 131 131 29.7 256 29.7z" style="fill-opacity:1.000000e-02;stroke:#cc5496;stroke-width:28"/></svg>