<svg xmlns="http://www.w3.org/2000/svg" viewBox="0 0 512 512" style="enable-background:new 0 0 512 512" xml:space="preserve"><path d="M256 29.7C381 29.7 482.3 131 482.3 256c0 125-101.3 226.3-226.3 226.3C131 482.3 29.7 381 29.7 256 29.7 131 131 29.7 256 29.7z" style="fill:#cc5496;fill-opacity:1.000000e-02;stroke:#3c5a9a;stroke-width:28"/><path d="M272 357.2v-91.6h30.7l4.6-35.7H272v-22.8c0-10.3 2.9-17.4 17.7-17.4h18.9v-31.9c-3.3-.4-14.5-1.4-27.5-1.4-27.3 0-45.9 16.6-45.9 47.2v26.3h-30.8v35.7h30.8v91.6H272z" style="fill:#3c5a9a"/></svg>