<svg xmlns="http://www.w3.org/2000/svg" viewBox="0 0 512 512" style="enable-background:new 0 0 512 512" xml:space="preserve"><path d="M256 29.7C381 29.7 482.3 131 482.3 256c0 125-101.3 226.3-226.3 226.3C131 482.3 29.7 381 29.7 256 29.7 131 131 29.7 256 29.7z" style="fill:#cc5496;fill-opacity:1.000000e-02;stroke:#d7143a;stroke-width:28"/><path d="M322.2 160.4c-16.1-15.5-38.4-24-62.7-24-37.2 0-60.1 15.2-72.7 28-15.6 15.8-24.5 36.7-24.5 57.4 0 26 10.9 46 29.1 53.4 1.2.5 2.5.8 3.7.8 3.8 0 6.9-2.5 7.9-6.6.6-2.3 2-8 2.7-10.5 1.3-4.9.3-7.3-2.6-10.7-5.3-6.2-7.7-13.6-7.7-23.2 0-28.5 21.2-58.8 60.6-58.8 31.2 0 50.6 17.7 50.6 46.3 0 18-3.9 34.7-10.9 47-4.9 8.5-13.5 18.7-26.8 18.7-5.7 0-10.9-2.4-14.1-6.4-3.1-3.9-4.1-8.9-2.8-14.1 1.4-5.9 3.3-12 5.1-18 3.4-10.9 6.5-21.1 6.5-29.3 0-14-8.6-23.4-21.4-23.4-16.3 0-29 16.5-29 37.6 0 10.3 2.7 18.1 4 21-2 8.7-14.2 60.3-16.5 70-1.3 5.7-9.4 50.6 3.9 54.1 15 4 28.3-39.7 29.7-44.6 1.1-4 5-19.2 7.3-28.5 7.2 7 18.9 11.7 30.2 11.7 21.3 0 40.5-9.6 54-27 13.1-16.9 20.3-40.5 20.3-66.3-.1-20.1-8.8-40-23.9-54.6z" style="fill:#d7143a"/></svg>