<svg xmlns="http://www.w3.org/2000/svg" viewBox="0 0 512 512" style="enable-background:new 0 0 512 512" xml:space="preserve"><path d="M256 29.7C381 29.7 482.3 131 482.3 256c0 125-101.3 226.3-226.3 226.3C131 482.3 29.7 381 29.7 256 29.7 131 131 29.7 256 29.7z" style="fill:#cc5496;fill-opacity:1.000000e-02;stroke:#f60;stroke-width:28"/><path d="M224.2 314.3c0 14-11.4 25.5-25.5 25.5-14 0-25.5-11.4-25.5-25.5 0-14 11.4-25.5 25.5-25.5s25.5 11.5 25.5 25.5zm145.5 25.5c.4-58.6-26.7-116.6-72.1-153.7-34.6-28.9-79.3-45.2-124.4-45.1v45.5c53.3-.6 105.9 28.4 133.3 74.3 14.5 23.8 22.2 51.1 22.2 79h41zm-69.4 0c.2-37.7-17.7-74.7-46.9-98.3-22.4-18.4-51.2-28.7-80.1-28.6v38.3c31.5-.4 62.4 17.7 77.4 45.4 7.3 13.3 11.2 28.2 11.2 43.3l38.4-.1z" style="fill:#f60"/></svg>