<svg xmlns="http://www.w3.org/2000/svg" viewBox="0 0 512 512" style="enable-background:new 0 0 512 512" xml:space="preserve"><path d="M256 29.7C381 29.7 482.3 131 482.3 256c0 125-101.3 226.3-226.3 226.3C131 482.3 29.7 381 29.7 256 29.7 131 131 29.7 256 29.7z" style="fill:#cc5496;fill-opacity:1.000000e-02;stroke:#3cf;stroke-width:28"/><path d="M302.2 256.3c6.5 0 11.9-2.3 16.5-7 4.6-4.8 6.9-10.3 6.9-17 0-6.6-2.3-12.3-6.9-17s-10.1-7.1-16.5-7.1h-69v-24c0-6.6-2.3-12.3-6.9-17-4.5-4.8-10-7.1-16.4-7.1-6.5 0-12.1 2.3-16.6 6.9-4.5 4.6-6.8 10.3-6.8 17.2v96c0 19.8 6.8 36.8 20.5 50.8 13.6 14.1 30 21.1 49.2 21.1h46.1c6.5 0 11.9-2.3 16.5-7s6.9-10.3 6.9-17-2.3-12.3-6.9-17c-4.6-4.8-10.1-7.1-16.5-7.1h-46.1c-6.5 0-11.9-2.3-16.4-6.9-4.4-4.6-6.7-10.2-6.7-16.9v-23.8l69.1-.1z" style="fill:#3cf"/></svg>