<?xml version="1.0" encoding="utf-8"?>
<!-- Generator: Adobe Illustrator 26.0.2, SVG Export Plug-In . SVG Version: 6.00 Build 0)  -->
<!DOCTYPE svg PUBLIC "-//W3C//DTD SVG 1.1//EN" "http://www.w3.org/Graphics/SVG/1.1/DTD/svg11.dtd" [
	<!ENTITY ns_extend "http://ns.adobe.com/Extensibility/1.0/">
	<!ENTITY ns_ai "http://ns.adobe.com/AdobeIllustrator/10.0/">
	<!ENTITY ns_graphs "http://ns.adobe.com/Graphs/1.0/">
	<!ENTITY ns_vars "http://ns.adobe.com/Variables/1.0/">
	<!ENTITY ns_imrep "http://ns.adobe.com/ImageReplacement/1.0/">
	<!ENTITY ns_sfw "http://ns.adobe.com/SaveForWeb/1.0/">
	<!ENTITY ns_custom "http://ns.adobe.com/GenericCustomNamespace/1.0/">
	<!ENTITY ns_adobe_xpath "http://ns.adobe.com/XPath/1.0/">
]>
<svg version="1.1" id="Layer_1" xmlns:x="&ns_extend;" xmlns:i="&ns_ai;" xmlns:graph="&ns_graphs;"
	 xmlns="http://www.w3.org/2000/svg" xmlns:xlink="http://www.w3.org/1999/xlink" x="0px" y="0px" viewBox="0 0 512 512"
	 style="enable-background:new 0 0 512 512;" xml:space="preserve">
<style type="text/css">
	.st0{fill-opacity:1.000000e-02;stroke:#CC5496;stroke-width:28;}
	.st1{fill:#CC5496;}
</style>
<metadata>
	<sfw  xmlns="&ns_sfw;">
		<slices></slices>
		<sliceSourceBounds  bottomLeftOrigin="true" height="480.6" width="480.6" x="15.7" y="15.7"></sliceSourceBounds>
	</sfw>
</metadata>
<path class="st0" d="M256,29.7L256,29.7C381,29.7,482.3,131,482.3,256l0,0c0,125-101.3,226.3-226.3,226.3l0,0
	C131,482.3,29.7,381,29.7,256l0,0C29.7,131,131,29.7,256,29.7z"/>
<path class="st1" d="M256,357.2c55.8,0,101.2-45.4,101.2-101.2c0-55.8-45.4-101.2-101.2-101.2S154.8,200.2,154.8,256
	C154.8,311.8,200.2,357.2,256,357.2z M256,333.6c-16,0-31.3-4.8-44.3-13.9c5.3-8.8,21.5-30.9,56-44.1c8.7,23.6,13.2,43.8,15,53.3
	C274.2,332.1,265.2,333.6,256,333.6z M305.3,315.9c-2-9.6-5.9-26.4-12.8-46.2c3.5-0.3,7-0.5,10.6-0.5c12.6,0,23,2.1,28.6,3.5
	C328,289.5,318.7,304.8,305.3,315.9z M319.5,211.8c7.8,11.1,12.5,24.2,13.7,37.7c-7.1-1.2-19.4-2.8-33.3-2.8
	c-5.5,0-10.8,0.3-15.9,0.8c-0.1-0.3-0.3-0.6-0.4-1c-1.1-2.5-2.2-5-3.4-7.6C300.9,229.7,313.5,218.3,319.5,211.8z M256,178.6
	c17.4,0,34.2,5.9,47.9,16.6c-4.7,5.3-15.4,15.3-34.3,23.1c-9.4-16.8-19-31.1-24.6-38.9C248.7,178.9,252.3,178.6,256,178.6z
	 M219.5,187.8c4.5,6.4,14.6,20.9,24.7,38.4c-27.2,6.6-51.2,8-62.6,8.3C187.4,214.5,201.1,197.6,219.5,187.8z M255.8,247.6
	c0.9,1.8,1.7,3.5,2.5,5.3c-34.4,11.8-55.8,38.2-64,50.1c-9.8-12.9-15.3-28.4-15.8-44.6C190.5,258.3,222.4,257,255.8,247.6z"/>
</svg>
