<?xml version="1.0" encoding="utf-8"?>
<!-- Generator: Adobe Illustrator 26.0.2, SVG Export Plug-In . SVG Version: 6.00 Build 0)  -->
<!DOCTYPE svg PUBLIC "-//W3C//DTD SVG 1.1//EN" "http://www.w3.org/Graphics/SVG/1.1/DTD/svg11.dtd" [
	<!ENTITY ns_extend "http://ns.adobe.com/Extensibility/1.0/">
	<!ENTITY ns_ai "http://ns.adobe.com/AdobeIllustrator/10.0/">
	<!ENTITY ns_graphs "http://ns.adobe.com/Graphs/1.0/">
	<!ENTITY ns_vars "http://ns.adobe.com/Variables/1.0/">
	<!ENTITY ns_imrep "http://ns.adobe.com/ImageReplacement/1.0/">
	<!ENTITY ns_sfw "http://ns.adobe.com/SaveForWeb/1.0/">
	<!ENTITY ns_custom "http://ns.adobe.com/GenericCustomNamespace/1.0/">
	<!ENTITY ns_adobe_xpath "http://ns.adobe.com/XPath/1.0/">
]>
<svg version="1.1" id="Layer_1" xmlns:x="&ns_extend;" xmlns:i="&ns_ai;" xmlns:graph="&ns_graphs;"
	 xmlns="http://www.w3.org/2000/svg" xmlns:xlink="http://www.w3.org/1999/xlink" x="0px" y="0px" viewBox="0 0 512 512"
	 style="enable-background:new 0 0 512 512;" xml:space="preserve">
<style type="text/css">
	.st0{fill:#CC5496;}
	.st1{fill-opacity:1.000000e-02;stroke:#CC5496;stroke-width:28;}
</style>
<metadata>
	<sfw  xmlns="&ns_sfw;">
		<slices></slices>
		<sliceSourceBounds  bottomLeftOrigin="true" height="480.6" width="480.6" x="15.7" y="15.7"></sliceSourceBounds>
	</sfw>
</metadata>
<path class="st0" d="M256,388.1c72.9,0,132.1-59.3,132.1-132.1c0-72.9-59.3-132.1-132.1-132.1S123.9,183.1,123.9,256
	C123.9,328.9,183.1,388.1,256,388.1z M256,357.4c-20.9,0-40.8-6.3-57.8-18.2c6.9-11.5,28-40.3,73.2-57.6
	c11.4,30.9,17.2,57.2,19.5,69.5C279.7,355.3,268,357.4,256,357.4z M320.4,334.2c-2.6-12.5-7.7-34.4-16.7-60.3
	c4.5-0.5,9.2-0.7,13.9-0.7c16.4,0,30.1,2.7,37.3,4.5C350,299.8,337.8,319.7,320.4,334.2z M338.9,198.3
	c10.2,14.5,16.3,31.6,17.9,49.3c-9.3-1.5-25.3-3.6-43.4-3.6c-7.2,0-14.2,0.3-20.8,1c-0.2-0.4-0.3-0.8-0.5-1.2
	c-1.4-3.2-2.9-6.5-4.4-9.9C314.7,221.7,331,206.9,338.9,198.3z M256,155c22.7,0,44.7,7.6,62.5,21.6c-6.1,6.9-20.1,19.9-44.7,30.1
	c-12.3-21.9-24.9-40.5-32.1-50.7C246.4,155.3,251.2,155,256,155z M208.3,166.9c5.9,8.4,19,27.3,32.2,50.1
	c-35.6,8.6-66.8,10.4-81.7,10.8C166.5,201.9,184.4,179.8,208.3,166.9z M255.8,245.1c1.2,2.3,2.3,4.6,3.3,6.9
	c-44.9,15.4-72.8,49.9-83.6,65.5c-12.8-16.8-20-37.1-20.7-58.2C170.5,259,212.2,257.3,255.8,245.1z"/>
<path class="st1" d="M256,29.7L256,29.7C381,29.7,482.3,131,482.3,256l0,0c0,125-101.3,226.3-226.3,226.3l0,0
	C131,482.3,29.7,381,29.7,256l0,0C29.7,131,131,29.7,256,29.7z"/>
</svg>
