<?xml version="1.0" encoding="utf-8"?>
<!-- Generator: Adobe Illustrator 26.0.2, SVG Export Plug-In . SVG Version: 6.00 Build 0)  -->
<!DOCTYPE svg PUBLIC "-//W3C//DTD SVG 1.1//EN" "http://www.w3.org/Graphics/SVG/1.1/DTD/svg11.dtd" [
	<!ENTITY ns_extend "http://ns.adobe.com/Extensibility/1.0/">
	<!ENTITY ns_ai "http://ns.adobe.com/AdobeIllustrator/10.0/">
	<!ENTITY ns_graphs "http://ns.adobe.com/Graphs/1.0/">
	<!ENTITY ns_vars "http://ns.adobe.com/Variables/1.0/">
	<!ENTITY ns_imrep "http://ns.adobe.com/ImageReplacement/1.0/">
	<!ENTITY ns_sfw "http://ns.adobe.com/SaveForWeb/1.0/">
	<!ENTITY ns_custom "http://ns.adobe.com/GenericCustomNamespace/1.0/">
	<!ENTITY ns_adobe_xpath "http://ns.adobe.com/XPath/1.0/">
]>
<svg version="1.1" id="Layer_1" xmlns:x="&ns_extend;" xmlns:i="&ns_ai;" xmlns:graph="&ns_graphs;"
	 xmlns="http://www.w3.org/2000/svg" xmlns:xlink="http://www.w3.org/1999/xlink" x="0px" y="0px" viewBox="0 0 512 512"
	 style="enable-background:new 0 0 512 512;" xml:space="preserve">
<style type="text/css">
	.st0{fill:#CC5496;fill-opacity:1.000000e-02;stroke:#D7143A;stroke-width:28;}
	.st1{fill:#D7143A;}
</style>
<metadata>
	<sfw  xmlns="&ns_sfw;">
		<slices></slices>
		<sliceSourceBounds  bottomLeftOrigin="true" height="480.6" width="480.6" x="15.7" y="15.7"></sliceSourceBounds>
	</sfw>
</metadata>
<path class="st0" d="M256,29.7L256,29.7C381,29.7,482.3,131,482.3,256l0,0c0,125-101.3,226.3-226.3,226.3l0,0
	C131,482.3,29.7,381,29.7,256l0,0C29.7,131,131,29.7,256,29.7z"/>
<path class="st1" d="M322.2,160.4c-16.1-15.5-38.4-24-62.7-24c-37.2,0-60.1,15.2-72.7,28c-15.6,15.8-24.5,36.7-24.5,57.4
	c0,26,10.9,46,29.1,53.4c1.2,0.5,2.5,0.8,3.7,0.8c3.8,0,6.9-2.5,7.9-6.6c0.6-2.3,2-8,2.7-10.5c1.3-4.9,0.3-7.3-2.6-10.7
	c-5.3-6.2-7.7-13.6-7.7-23.2c0-28.5,21.2-58.8,60.6-58.8c31.2,0,50.6,17.7,50.6,46.3c0,18-3.9,34.7-10.9,47
	c-4.9,8.5-13.5,18.7-26.8,18.7c-5.7,0-10.9-2.4-14.1-6.4c-3.1-3.9-4.1-8.9-2.8-14.1c1.4-5.9,3.3-12,5.1-18
	c3.4-10.9,6.5-21.1,6.5-29.3c0-14-8.6-23.4-21.4-23.4c-16.3,0-29,16.5-29,37.6c0,10.3,2.7,18.1,4,21c-2,8.7-14.2,60.3-16.5,70
	c-1.3,5.7-9.4,50.6,3.9,54.1c15,4,28.3-39.7,29.7-44.6c1.1-4,5-19.2,7.3-28.5c7.2,7,18.9,11.7,30.2,11.7c21.3,0,40.5-9.6,54-27
	c13.1-16.9,20.3-40.5,20.3-66.3C346,194.9,337.3,175,322.2,160.4z"/>
</svg>
