<?xml version="1.0" encoding="utf-8"?>
<!-- Generator: Adobe Illustrator 26.0.2, SVG Export Plug-In . SVG Version: 6.00 Build 0)  -->
<!DOCTYPE svg PUBLIC "-//W3C//DTD SVG 1.1//EN" "http://www.w3.org/Graphics/SVG/1.1/DTD/svg11.dtd" [
	<!ENTITY ns_extend "http://ns.adobe.com/Extensibility/1.0/">
	<!ENTITY ns_ai "http://ns.adobe.com/AdobeIllustrator/10.0/">
	<!ENTITY ns_graphs "http://ns.adobe.com/Graphs/1.0/">
	<!ENTITY ns_vars "http://ns.adobe.com/Variables/1.0/">
	<!ENTITY ns_imrep "http://ns.adobe.com/ImageReplacement/1.0/">
	<!ENTITY ns_sfw "http://ns.adobe.com/SaveForWeb/1.0/">
	<!ENTITY ns_custom "http://ns.adobe.com/GenericCustomNamespace/1.0/">
	<!ENTITY ns_adobe_xpath "http://ns.adobe.com/XPath/1.0/">
]>
<svg version="1.1" id="Layer_1" xmlns:x="&ns_extend;" xmlns:i="&ns_ai;" xmlns:graph="&ns_graphs;"
	 xmlns="http://www.w3.org/2000/svg" xmlns:xlink="http://www.w3.org/1999/xlink" x="0px" y="0px" viewBox="0 0 512 512"
	 style="enable-background:new 0 0 512 512;" xml:space="preserve">
<style type="text/css">
	.st0{fill:#CC5496;fill-opacity:1.000000e-02;stroke:#FF6600;stroke-width:28;}
	.st1{fill:#FF6600;}
</style>
<metadata>
	<sfw  xmlns="&ns_sfw;">
		<slices></slices>
		<sliceSourceBounds  bottomLeftOrigin="true" height="480.6" width="480.6" x="15.7" y="15.7"></sliceSourceBounds>
	</sfw>
</metadata>
<path class="st0" d="M256,29.7L256,29.7C381,29.7,482.3,131,482.3,256l0,0c0,125-101.3,226.3-226.3,226.3l0,0
	C131,482.3,29.7,381,29.7,256l0,0C29.7,131,131,29.7,256,29.7z"/>
<path class="st1" d="M224.2,314.3c0,14-11.4,25.5-25.5,25.5c-14,0-25.5-11.4-25.5-25.5c0-14,11.4-25.5,25.5-25.5
	C212.8,288.8,224.2,300.3,224.2,314.3L224.2,314.3z M369.7,339.8c0.4-58.6-26.7-116.6-72.1-153.7c-34.6-28.9-79.3-45.2-124.4-45.1
	v45.5c53.3-0.6,105.9,28.4,133.3,74.3c14.5,23.8,22.2,51.1,22.2,79L369.7,339.8L369.7,339.8z M300.3,339.8
	c0.2-37.7-17.7-74.7-46.9-98.3c-22.4-18.4-51.2-28.7-80.1-28.6v38.3c31.5-0.4,62.4,17.7,77.4,45.4c7.3,13.3,11.2,28.2,11.2,43.3
	L300.3,339.8L300.3,339.8L300.3,339.8z"/>
</svg>
