<?xml version="1.0" encoding="utf-8"?>
<!-- Generator: Adobe Illustrator 26.0.2, SVG Export Plug-In . SVG Version: 6.00 Build 0)  -->
<!DOCTYPE svg PUBLIC "-//W3C//DTD SVG 1.1//EN" "http://www.w3.org/Graphics/SVG/1.1/DTD/svg11.dtd" [
	<!ENTITY ns_extend "http://ns.adobe.com/Extensibility/1.0/">
	<!ENTITY ns_ai "http://ns.adobe.com/AdobeIllustrator/10.0/">
	<!ENTITY ns_graphs "http://ns.adobe.com/Graphs/1.0/">
	<!ENTITY ns_vars "http://ns.adobe.com/Variables/1.0/">
	<!ENTITY ns_imrep "http://ns.adobe.com/ImageReplacement/1.0/">
	<!ENTITY ns_sfw "http://ns.adobe.com/SaveForWeb/1.0/">
	<!ENTITY ns_custom "http://ns.adobe.com/GenericCustomNamespace/1.0/">
	<!ENTITY ns_adobe_xpath "http://ns.adobe.com/XPath/1.0/">
]>
<svg version="1.1" id="Layer_1" xmlns:x="&ns_extend;" xmlns:i="&ns_ai;" xmlns:graph="&ns_graphs;"
	 xmlns="http://www.w3.org/2000/svg" xmlns:xlink="http://www.w3.org/1999/xlink" x="0px" y="0px" viewBox="0 0 512 512"
	 style="enable-background:new 0 0 512 512;" xml:space="preserve">
<style type="text/css">
	.st0{fill:#CC5496;fill-opacity:1.000000e-02;stroke:#33CCFF;stroke-width:28;}
	.st1{fill:#33CCFF;}
</style>
<metadata>
	<sfw  xmlns="&ns_sfw;">
		<slices></slices>
		<sliceSourceBounds  bottomLeftOrigin="true" height="480.6" width="480.6" x="15.7" y="15.7"></sliceSourceBounds>
	</sfw>
</metadata>
<path class="st0" d="M256,29.7L256,29.7C381,29.7,482.3,131,482.3,256l0,0c0,125-101.3,226.3-226.3,226.3l0,0
	C131,482.3,29.7,381,29.7,256l0,0C29.7,131,131,29.7,256,29.7z"/>
<g id="XMLID_1_">
	<path id="XMLID_3_" class="st1" d="M302.2,256.3c6.5,0,11.9-2.3,16.5-7c4.6-4.8,6.9-10.3,6.9-17c0-6.6-2.3-12.3-6.9-17
		s-10.1-7.1-16.5-7.1h-69v-24c0-6.6-2.3-12.3-6.9-17c-4.5-4.8-10-7.1-16.4-7.1c-6.5,0-12.1,2.3-16.6,6.9c-4.5,4.6-6.8,10.3-6.8,17.2
		v96c0,19.8,6.8,36.8,20.5,50.8c13.6,14.1,30,21.1,49.2,21.1h46.1c6.5,0,11.9-2.3,16.5-7c4.6-4.7,6.9-10.3,6.9-17s-2.3-12.3-6.9-17
		c-4.6-4.8-10.1-7.1-16.5-7.1h-46.1c-6.5,0-11.9-2.3-16.4-6.9c-4.4-4.6-6.7-10.2-6.7-16.9v-23.8L302.2,256.3L302.2,256.3z"/>
</g>
</svg>
